<?xml version="1.0" encoding="utf-8"?>
<!-- Generator: Adobe Illustrator 16.0.0, SVG Export Plug-In . SVG Version: 6.00 Build 0)  -->
<!DOCTYPE svg PUBLIC "-//W3C//DTD SVG 1.1//EN" "http://www.w3.org/Graphics/SVG/1.1/DTD/svg11.dtd">
<svg version="1.1" id="Layer_1" xmlns="http://www.w3.org/2000/svg" xmlns:xlink="http://www.w3.org/1999/xlink" x="0px" y="0px"
	 width="470px" height="625px" viewBox="0 0 470 625" enable-background="new 0 0 470 625" xml:space="preserve">
<g>
	<line fill="none" stroke="#FFFFFF" stroke-width="10" stroke-miterlimit="10" x1="275.301" y1="281.702" x2="275.301" y2="0"/>
	
		<line fill="none" stroke="#FFFFFF" stroke-width="4" stroke-miterlimit="10" x1="409.065" y1="586.088" x2="310.872" y2="416.013"/>
	<line fill="none" stroke="#FFFFFF" stroke-width="4" stroke-miterlimit="10" x1="145.92" y1="280.155" x2="104.64" y2="255.87"/>
	
		<line fill="none" stroke="#FFFFFF" stroke-width="4" stroke-miterlimit="10" x1="211.259" y1="317.429" x2="186.755" y2="302.333"/>
	<line fill="none" stroke="#FFFFFF" stroke-width="4" stroke-miterlimit="10" x1="397.07" y1="354.398" x2="347.999" y2="354.4"/>
	<path fill="#8B8178" stroke="#FFFFFF" stroke-width="7" stroke-miterlimit="10" d="M395.981,225.36
		c0,22.522-18.26,40.779-40.777,40.779c-22.526,0-40.779-18.257-40.779-40.779c0-22.52,18.253-40.778,40.779-40.778
		C377.722,184.582,395.981,202.84,395.981,225.36z"/>
	<path fill="#8B8178" stroke="#FFFFFF" stroke-width="7" stroke-miterlimit="10" d="M189.767,282.969
		c0,19.998-16.217,36.211-36.21,36.211c-20.003,0-36.212-16.213-36.212-36.211c0-19.999,16.209-36.211,36.212-36.211
		C173.55,246.758,189.767,262.97,189.767,282.969z"/>
	<path fill="#F7931E" stroke="#FFFFFF" stroke-width="3" stroke-miterlimit="10" d="M112.933,235.167
		c0,20.476-16.602,37.075-37.074,37.075c-20.479,0-37.076-16.6-37.076-37.075c0-20.477,16.597-37.077,37.076-37.077
		C96.331,198.09,112.933,214.69,112.933,235.167z"/>
	<g opacity="0.4">
		<path fill-rule="evenodd" clip-rule="evenodd" fill="#FFFFFF" d="M62.74,251.24c-2.053,0.362-3.98,0.517-5.919,0.474
			c-3.695-0.088-7.292-0.678-10.659-2.27c-2.105-1-1.938-0.764-2.018-3.294c-0.066-2.058,1.037-3.347,2.739-4.237
			c1.43-0.748,3.016-1.013,4.553-1.43c0.512-0.14,1.029-0.288,1.504-0.504c1.055-0.483,1.254-1.301,0.644-2.261
			c-0.645-1.011-1.091-2.112-1.362-3.282c-0.078-0.321-0.209-0.565-0.464-0.792c-0.566-0.49-0.896-1.148-0.991-1.882
			c-0.046-0.362-0.289-0.846,0.39-1.031c0.237-0.064,0.087-0.5,0.044-0.753c-0.16-0.955-0.221-1.909-0.012-2.859
			c0.503-2.359,2.235-3.726,4.878-3.884c0.862-0.054,1.689,0.079,2.519,0.316c0.554,0.161,0.672,0.333,0.438,0.917
			c-1.908,4.744-1.714,9.428,0.527,14.026c0.467,0.958,1.049,1.85,1.705,2.689c0.174,0.222,0.28,0.367,0.017,0.625
			c-1.095,1.066-1.576,2.392-1.629,3.903c-0.028,0.771,0.001,1.537,0.076,2.299c0.103,1.068,0.614,1.884,1.57,2.409
			C61.733,250.659,62.172,250.916,62.74,251.24z"/>
		<path fill-rule="evenodd" clip-rule="evenodd" fill="#FFFFFF" d="M59.65,230.853c0.022-8.235,6.656-14.851,14.881-14.84
			c8.259,0.012,14.891,6.674,14.855,14.928c-0.03,8.225-6.679,14.825-14.912,14.809C66.253,245.732,59.627,239.074,59.65,230.853z
			 M74.499,217.934c-7.258,0.059-12.983,5.839-12.921,13.049c0.06,7.194,5.85,12.891,13.058,12.846
			c7.16-0.044,12.878-5.879,12.825-13.08C87.409,223.639,81.579,217.876,74.499,217.934z"/>
		<path fill-rule="evenodd" clip-rule="evenodd" fill="#FFFFFF" d="M97.826,229.221c0,0.404,0,0.809,0,1.212
			c0,0.085-0.013,0.23,0.017,0.238c0.545,0.203,0.378,0.641,0.313,1.001c-0.132,0.713-0.234,1.463-0.869,1.928
			c-0.295,0.21-0.407,0.458-0.466,0.78c-0.225,1.334-0.565,2.609-1.465,3.685c-0.415,0.498-0.088,1.347,0.647,1.758
			c0.901,0.505,1.906,0.711,2.903,0.925c1.315,0.279,2.599,0.636,3.784,1.308c2.321,1.322,2.663,3.507,2.063,6.128
			c-0.124,0.528-0.653,0.708-1.067,0.947c-1.461,0.834-1.461,0.823-2.623-0.342c-2.768-2.774-5.543-5.544-8.311-8.322
			c-0.812-0.816-1.761-1.336-2.921-1.408c-0.517-0.03-0.524-0.216-0.319-0.634c2.32-4.809,2.402-9.667,0.255-14.554
			c-0.187-0.417-0.124-0.525,0.319-0.58c0.707-0.088,1.397-0.084,2.098,0.037c1.378,0.236,2.607,0.899,3.836,1.489
			c1.138,0.549,1.637,1.694,1.789,2.938c0.059,0.482,0.052,0.975,0.074,1.464C97.865,229.221,97.845,229.221,97.826,229.221z"/>
		<path fill-rule="evenodd" clip-rule="evenodd" fill="#FFFFFF" d="M85.103,245.143c0.058-0.241,0.026-0.452-0.254-0.66
			c-0.337-0.249-0.346-0.66-0.055-0.96c0.93-0.961,1.883-1.909,2.848-2.843c0.237-0.231,0.592-0.272,0.812-0.023
			c0.277,0.319,0.58,0.32,0.95,0.304c0.714-0.033,1.342,0.215,1.849,0.721c3.769,3.761,7.545,7.518,11.294,11.296
			c1.074,1.083,1.037,2.626-0.022,3.726c-0.531,0.551-1.08,1.089-1.629,1.626c-1.165,1.138-2.698,1.139-3.86-0.02
			c-3.065-3.052-6.119-6.115-9.176-9.17c-0.662-0.664-1.323-1.327-1.984-1.99C85.33,246.608,85.087,245.951,85.103,245.143z"/>
		<path fill-rule="evenodd" clip-rule="evenodd" fill="#FFFFFF" d="M62.034,219.636c-0.525-0.937-0.885-1.865-1.111-2.841
			c-0.073-0.319-0.196-0.567-0.458-0.795c-0.599-0.521-0.931-1.217-1.018-2.001c-0.039-0.34-0.197-0.743,0.392-0.917
			c0.282-0.086,0.097-0.533,0.05-0.801c-0.168-0.937-0.199-1.868-0.015-2.795c0.483-2.371,2.243-3.752,4.926-3.91
			c0.711-0.041,1.404,0.034,2.085,0.218c1.095,0.294,2.104,0.802,3.115,1.265c1.252,0.572,1.827,1.742,1.972,3.087
			c0.067,0.655,0.007,1.322,0.049,1.978c0.027,0.385-0.229,0.807,0.297,1.15c0.304,0.2-0.034,0.944-0.418,1.008
			C68.021,214.923,64.758,216.699,62.034,219.636z"/>
		<path fill-rule="evenodd" clip-rule="evenodd" fill="#FFFFFF" d="M87.155,219.811c-1.335-1.476-2.774-2.661-4.419-3.587
			c-1.762-0.988-3.643-1.63-5.637-1.945c-0.213-0.035-0.521,0.046-0.516-0.318c0.004-0.309-0.194-0.71,0.314-0.837
			c0.431-0.106,0.18-0.448,0.154-0.63c-0.104-0.784-0.19-1.563-0.118-2.354c0.225-2.459,1.66-4.004,4.101-4.445
			c1.661-0.301,3.212-0.038,4.68,0.787c0.146,0.083,0.299,0.166,0.46,0.206c1.678,0.427,2.787,1.695,2.937,3.435
			c0.065,0.719,0.031,1.445,0.052,2.167c0.009,0.337-0.222,0.75,0.3,0.946c0.059,0.024,0.054,0.281,0.035,0.425
			c-0.13,0.929-0.229,1.877-1.124,2.459c-0.271,0.175-0.21,0.497-0.264,0.755c-0.12,0.626-0.258,1.249-0.491,1.843
			C87.489,219.054,87.339,219.382,87.155,219.811z"/>
		<path fill-rule="evenodd" clip-rule="evenodd" fill="#FFFFFF" d="M74.995,251.738c-4.34-0.083-8.296-0.734-12.009-2.541
			c-0.979-0.474-1.507-1.094-1.419-2.212c0.058-0.763-0.021-1.529,0.143-2.291c0.125-0.569,0.479-0.984,0.803-1.43
			c0.231-0.315,0.425-0.239,0.668-0.007c0.918,0.867,1.922,1.619,3.034,2.22c5.382,2.915,10.807,2.949,16.26,0.201
			c0.658-0.33,0.652-0.342,0.764,0.377c0.184,1.226,0.905,2.127,1.771,2.947c0.625,0.589,0.815,0.553-0.206,0.947
			c-2.545,0.982-5.179,1.531-7.896,1.673C76.184,251.662,75.467,251.796,74.995,251.738z"/>
		<path fill-rule="evenodd" clip-rule="evenodd" fill="#FFFFFF" d="M80.036,240.377c-2.779,1.912-7.636,2.137-10.94,0.082
			c0.451-0.172,0.885-0.299,1.287-0.493c0.994-0.482,1.209-1.312,0.608-2.238c-0.67-1.028-1.088-2.166-1.392-3.341
			c-0.084-0.308-0.205-0.533-0.439-0.737c-0.542-0.458-0.861-1.077-0.973-1.756c-0.066-0.393-0.349-0.912,0.351-1.181
			c0.254-0.1,0.087-0.542,0.048-0.828c-0.133-0.954-0.178-1.906,0.018-2.858c0.341-1.629,1.295-2.74,2.847-3.342
			c1.481-0.572,2.982-0.631,4.496-0.138c0.889,0.288,1.725,0.712,2.579,1.075c1.374,0.577,2.014,1.793,2.142,3.238
			c0.074,0.802,0.024,1.615,0.024,2.426c0,0.205-0.083,0.427,0.228,0.502c0.146,0.034,0.155,0.194,0.144,0.322
			c-0.088,0.958-0.161,1.938-1.023,2.575c-0.291,0.212-0.309,0.492-0.361,0.773c-0.242,1.285-0.567,2.524-1.433,3.568
			c-0.394,0.475-0.161,1.291,0.479,1.7C79.128,239.985,79.588,240.157,80.036,240.377z"/>
	</g>
	<circle fill="#F7931E" stroke="#FFFFFF" stroke-width="4" stroke-miterlimit="10" cx="431.42" cy="354.4" r="35.828"/>
	<path fill="none" stroke="#FFFFFF" stroke-width="4" stroke-miterlimit="10" d="M414.909,154.774
		c0,10.738-8.704,19.441-19.437,19.441c-10.743,0-19.446-8.703-19.446-19.441c0-10.739,8.703-19.443,19.446-19.443
		C406.205,135.332,414.909,144.035,414.909,154.774z"/>
	<path fill="none" stroke="#FFFFFF" stroke-width="4" stroke-miterlimit="10" d="M29.536,174.962c0,7.397-5.998,13.39-13.39,13.39
		c-7.399,0-13.395-5.993-13.395-13.39c0-7.396,5.995-13.391,13.395-13.391C23.538,161.572,29.536,167.566,29.536,174.962z"/>
	<line fill="none" stroke="#FFFFFF" stroke-width="4" stroke-miterlimit="10" x1="311.53" y1="291.517" x2="329.462" y2="260.619"/>
	<line fill="none" stroke="#FFFFFF" stroke-width="4" stroke-miterlimit="10" x1="373.716" y1="190.502" x2="384.16" y2="172.355"/>
	<polyline fill="none" stroke="#FFFFFF" stroke-width="4" stroke-miterlimit="10" points="42.085,219.213 16.229,205.314 
		16.304,190.455 	"/>
	
		<line fill="none" stroke="#FFFFFF" stroke-width="4" stroke-miterlimit="10" x1="332.034" y1="453.848" x2="328.645" y2="481.474"/>
	
		<line fill="none" stroke="#FFFFFF" stroke-width="4" stroke-miterlimit="10" x1="332.489" y1="452.786" x2="375.142" y2="472.656"/>
	<circle fill="#FFFFFF" cx="327.917" cy="486.077" r="7.026"/>
	<circle fill="#FFFFFF" cx="373.444" cy="471.445" r="7.027"/>
	<circle fill="#8B8178" stroke="#FFFFFF" stroke-width="4" stroke-miterlimit="10" cx="274.815" cy="353.432" r="82.593"/>
	<g>
		<defs>
			<circle id="SVGID_1_" cx="274.815" cy="353.432" r="62.638"/>
		</defs>
		<use xlink:href="#SVGID_1_"  overflow="visible" fill="#F7931E"/>
		<clipPath id="SVGID_2_">
			<use xlink:href="#SVGID_1_"  overflow="visible"/>
		</clipPath>
		<g opacity="0.4" clip-path="url(#SVGID_2_)">
			<path fill-rule="evenodd" clip-rule="evenodd" fill="#FFFFFF" d="M280.683,403.289c4.717-15.36,9.434-30.716,14.162-46.117
				c5.474,1.152,10.635,2.281,15.569,4.297c2.504,1.022,4.403,2.743,5.634,5.045c0.695,1.304,1.018,2.91,1.129,4.407
				c0.667,8.965,1.214,17.938,1.838,26.905c0.057,0.802-0.173,1.325-0.74,1.857c-10.212,9.565-22.185,15.575-36.077,17.408
				c-20.436,2.7-38.356-2.981-53.756-16.677c-0.925-0.821-1.362-1.624-1.247-2.94c0.589-6.786,1.072-13.581,1.564-20.372
				c0.151-2.094,0.257-4.194,0.299-6.292c0.084-4.195,2.309-7.134,5.877-8.766c3.245-1.481,6.778-2.365,10.228-3.36
				c2.234-0.644,4.545-1.013,6.783-1.496c4.696,15.374,9.365,30.665,14.035,45.954c0.091-0.009,0.181-0.021,0.271-0.032
				c0.124-1.838,0.279-3.678,0.37-5.519c0.28-5.695,0.57-11.392,0.771-17.091c0.049-1.339,0.356-2.497,1.205-3.503
				c1.426-1.689,2.877-3.359,4.56-5.317c-0.311-0.203-0.735-0.378-1.023-0.681c-1.466-1.552-2.913-3.126-4.337-4.716
				c-0.945-1.056-1.066-2.277-0.142-3.339c1.259-1.447,2.601-2.846,4.054-4.096c1.087-0.937,2.403-0.842,3.656-0.084
				c1.731,1.05,3.093,2.451,4.133,4.18c0.69,1.146,0.695,2.263-0.179,3.297c-0.919,1.088-1.858,2.162-2.847,3.185
				c-0.821,0.853-1.728,1.623-2.673,2.5c0.919,1.051,1.794,2.109,2.734,3.108c1.905,2.021,2.716,4.318,2.789,7.174
				c0.175,6.805,0.702,13.604,1.091,20.402c0.012,0.219,0.058,0.434,0.088,0.651C280.563,403.271,280.623,403.278,280.683,403.289z"
				/>
			<path fill-rule="evenodd" clip-rule="evenodd" fill="#FFFFFF" d="M272.173,298c6.386,0.124,11.732,1.872,16.083,6.205
				c0.23,0.23,0.859,0.32,1.168,0.178c5.848-2.695,11.88,0.607,12.516,6.948c0.26,2.581-0.663,4.825-2.48,6.677
				c-1.608,1.637-3.276,3.221-4.847,4.895c-0.42,0.449-0.73,1.119-0.828,1.729c-1.196,7.502-3.896,14.345-8.958,20.095
				c-1.344,1.528-2.931,2.923-4.626,4.047c-5.117,3.391-10.354,3.286-15.473-0.041c-4.524-2.942-7.52-7.199-9.764-12.003
				c-3.236-6.922-4.744-14.15-3.48-21.8c1.513-9.161,8.644-15.81,17.873-16.686C270.418,298.144,271.482,298.06,272.173,298z
				 M273.158,326.337c-0.128-0.087-0.256-0.175-0.384-0.264c-0.066-0.04-0.144-0.072-0.197-0.125
				c-1.601-1.591-3.193-3.188-4.799-4.775c-2.012-1.989-4.729-2.091-6.551-0.258c-1.813,1.823-1.701,4.561,0.282,6.554
				c2.653,2.665,5.312,5.327,7.978,7.979c2.072,2.062,4.638,2.074,6.716,0.023c1.945-1.917,3.866-3.861,5.798-5.791
				c4.787-4.788,9.567-9.58,14.363-14.357c1.323-1.316,1.844-2.849,1.323-4.648c-0.964-3.314-4.966-4.248-7.513-1.721
				c-5.454,5.406-10.872,10.85-16.294,16.293C273.58,325.548,273.397,325.971,273.158,326.337z"/>
		</g>
		<use xlink:href="#SVGID_1_"  overflow="visible" fill="none" stroke="#FFFFFF" stroke-width="4" stroke-miterlimit="10"/>
	</g>
	<circle fill="#F7931E" stroke="#FFFFFF" stroke-width="4" stroke-miterlimit="10" cx="395.134" cy="560.258" r="55.387"/>
	<g opacity="0.4">
		<path fill-rule="evenodd" clip-rule="evenodd" fill="#FFFFFF" d="M412.271,603.268c-0.231-0.088-0.459-0.186-0.694-0.268
			c-1.534-0.545-2.466-1.811-2.462-3.443c0.008-5.518,0.016-11.029,0.051-16.545c0.017-2.326,1.506-3.805,3.808-3.934
			c2.379-0.133,4.749-0.334,7.12-0.48c0.427-0.023,0.576-0.168,0.601-0.594c0.379-5.475,0.771-10.945,1.17-16.416
			c0.084-1.143,0.106-2.295,0.31-3.422c0.639-3.551,3.901-5.973,7.438-5.598c3.525,0.375,6.264,3.342,6.141,6.904
			c-0.129,3.719-0.457,7.43-0.707,11.143c-0.196,2.961-0.396,5.92-0.614,8.879c-0.058,0.777-0.123,1.566-0.295,2.324
			c-0.519,2.271-1.803,3.293-4.113,3.465c-4.324,0.324-8.648,0.691-12.968,1.047c-0.166,0.014-0.328,0.057-0.595,0.105
			c0,0.307-0.006,0.6,0,0.896c0.068,3.752,0.132,7.504,0.203,11.254c0.058,2.879-0.438,3.643-3.048,4.682
			C413.168,603.268,412.717,603.268,412.271,603.268z"/>
		<path fill-rule="evenodd" clip-rule="evenodd" fill="#FFFFFF" d="M376.653,603.268c-0.362-0.141-0.741-0.244-1.09-0.418
			c-1.43-0.727-2.018-1.93-1.982-3.504c0.082-3.943,0.151-7.891,0.227-11.836c0.009-0.332,0-0.664,0-1.096
			c-0.864-0.088-1.688-0.178-2.515-0.244c-3.654-0.301-7.303-0.615-10.959-0.881c-2.575-0.191-4.023-1.447-4.318-4.037
			c-0.25-2.195-0.36-4.406-0.516-6.611c-0.324-4.633-0.597-9.266-0.967-13.898c-0.33-4.107,1.788-7.303,5.456-8.049
			c4.154-0.844,7.973,2.188,8.251,6.469c0.416,6.338,0.896,12.67,1.349,19.006c0.008,0.105,0.047,0.209,0.082,0.375
			c1.432,0.107,2.845,0.217,4.26,0.318c1.146,0.084,2.293,0.166,3.438,0.219c2.109,0.102,3.695,1.584,3.716,3.68
			c0.058,5.623,0.063,11.25,0.058,16.875c0,1.605-0.944,2.82-2.456,3.361c-0.231,0.084-0.459,0.182-0.688,0.271
			C377.549,603.268,377.1,603.268,376.653,603.268z"/>
		<path fill-rule="evenodd" clip-rule="evenodd" fill="#FFFFFF" d="M383.372,603.268c0-8.586,0-17.168,0-25.848
			c-1.454,0-2.839,0-4.279,0c0-1.537,0-2.977,0-4.488c10.67,0,21.342,0,32.071,0c0,1.439,0,2.883,0,4.428c-1.374,0-2.757,0-4.271,0
			c0,8.705,0,17.305,0,25.908c-1.344,0-2.688,0-4.031,0c0.006-6.043,0.013-12.086,0.017-18.127c0-0.102-0.054-0.205-0.082-0.299
			c-5.144,0-10.248,0-15.347,0c-0.032,0.139-0.067,0.219-0.067,0.299c0.006,6.041,0.015,12.084,0.022,18.127
			C386.062,603.268,384.716,603.268,383.372,603.268z"/>
		<path fill-rule="evenodd" clip-rule="evenodd" fill="#FFFFFF" d="M400.341,517.246c0.196,0.092,0.389,0.193,0.59,0.271
			c1.618,0.637,2.598,2.006,2.602,3.748c0.015,4.818,0.019,9.635,0,14.447c-0.011,2.176-1.7,3.871-3.9,3.9
			c-2.518,0.039-5.039,0.008-7.559,0.014c-0.299,0-0.592,0-1.105,0c0.458,0.883,0.776,1.615,1.2,2.287
			c2.581,4.072,7.684,6.02,12.232,4.42c1.688-0.592,3.234-0.57,4.89-0.252c0.68,0.129,1.375,0.193,2.335,0.322
			c-0.561-0.801-0.989-1.422-1.428-2.037c-0.663-0.947-0.672-1.299-0.03-2.264c2.902-4.391,2.298-10.074-1.428-13.781
			c-0.276-0.273-0.444-0.746-0.481-1.143c-0.078-0.775-0.022-1.563-0.022-2.525c0.34,0.215,0.588,0.35,0.813,0.516
			c5.471,3.939,7.188,11.363,3.946,17.289c-0.323,0.594-0.286,0.961,0.105,1.471c0.799,1.043,1.52,2.146,2.298,3.205
			c0.397,0.543,0.592,1.094,0.252,1.709c-0.377,0.68-1.016,0.715-1.688,0.615c-2.241-0.336-4.482-0.686-6.726-0.99
			c-0.36-0.053-0.774,0.002-1.12,0.131c-8.077,3.037-16.639-1.844-18.139-10.354c-1.286-7.32,4.02-14.523,11.385-15.459
			c0.474-0.064,0.942-0.129,1.515-0.203c0-0.512,0.053-1.037-0.011-1.549c-0.092-0.75-0.644-1.119-1.612-1.119
			c-5.291-0.002-10.582,0-15.875,0c-2.016,0-4.031-0.006-6.047,0c-1.174,0.004-1.688,0.51-1.689,1.691
			c-0.006,4.563-0.006,9.125,0,13.688c0.002,1.189,0.491,1.695,1.678,1.711c1.456,0.023,2.91-0.006,4.369,0.008
			c1.479,0.021,1.989,0.885,1.333,2.223c-0.202,0.416-0.403,0.834-0.471,1.355c0.338-0.273,0.676-0.543,1.016-0.816
			c0.319-0.258,0.644-0.516,1.043-0.838c0.116,0.506,0.133,0.943,0.313,1.291c0.631,1.191,0.116,1.865-0.858,2.576
			c-1.649,1.205-3.193,2.551-4.771,3.85c-0.604,0.498-1.225,0.721-1.887,0.178c-0.664-0.547-0.553-1.217-0.207-1.898
			c0.748-1.471,1.487-2.945,2.227-4.418c0.123-0.244,0.222-0.496,0.397-0.889c-0.848,0-1.567,0-2.277,0
			c-2.977,0.004-4.54-1.572-4.542-4.568c0-4.229,0.072-8.459-0.024-12.684c-0.062-2.557,0.812-4.334,3.333-5.129
			C384.324,517.246,392.334,517.246,400.341,517.246z M400.904,525.262c-0.651,0.076-1.176,0.121-1.688,0.211
			c-5.045,0.852-9.013,5.764-8.785,10.846c0.022,0.416,0.078,0.695,0.59,0.695c2.825-0.014,5.647,0.01,8.47-0.025
			c0.953-0.014,1.401-0.531,1.407-1.516c0.019-2.266,0.007-4.529,0.007-6.795C400.908,527.594,400.904,526.508,400.904,525.262z"/>
		<path fill-rule="evenodd" clip-rule="evenodd" fill="#FFFFFF" d="M438.144,542.783c-0.121,0.457-0.235,0.908-0.358,1.363
			c-1.204,4.471-5.453,7.25-10.22,6.678c-4.33-0.516-7.816-4.5-7.874-8.994c-0.057-4.58,3.314-8.594,7.782-9.26
			c5.021-0.748,9.597,2.549,10.502,7.57c0.028,0.158,0.11,0.307,0.168,0.459C438.144,541.328,438.144,542.053,438.144,542.783z"/>
		<path fill-rule="evenodd" clip-rule="evenodd" fill="#FFFFFF" d="M352.124,540.6c0.211-0.717,0.379-1.449,0.635-2.145
			c1.635-4.426,6.392-6.889,10.931-5.688c4.644,1.232,7.488,5.699,6.725,10.559c-0.707,4.498-4.925,7.828-9.562,7.551
			c-4.355-0.256-7.821-3.35-8.561-7.635c-0.026-0.158-0.11-0.309-0.168-0.459C352.124,542.053,352.124,541.328,352.124,540.6z"/>
	</g>
</g>
</svg>
